#!OML:ASF H:\Terrain\Patient Classification 1\Terrain2\Thursday\justin.ASF
:FULLY-SPECIFIED
:DEGREES
2964
root -12.7003 17.2997 -9.43399 168.919 104.706 -554.848
lowerback 3.74296 2.08289 1.76464
upperback 2.5751 2.87462 2.1323
thorax 0.523062 1.46486 1.10584
lowerneck -12.8079 -3.86321 -8.21125
upperneck 33.9505 -3.1364 2.32842
head 13.885 -1.75261 1.97194
rclavicle -4.42296e-015 1.19271e-014
rhumerus -22.0669 -4.7187 -86.9918
rradius 33.0211
rwrist -8.26509
rhand -18.0693 13.2607
rfingers 7.12502
rthumb 8.20344 -16.5601
lclavicle -4.42296e-015 1.19271e-014
lhumerus -35.5391 16.1212 78.1929
lradius 29.2042
lwrist 1.40585
lhand -15.3698 21.5105
lfingers 7.12502
lthumb 10.8081 51.2124
rfemur -3.70895 -11.5366 22.2449
rtibia 31.0513
rfoot -21.6778 -9.18647
rtoes -0.0722724
lfemur -15.7856 4.38376 -17.7412
ltibia 32.1845
lfoot -15.1003 -4.48836
ltoes 23.3917
2965
root -12.6719 17.3116 -9.44262 169.749 104.683 -554.108
lowerback 3.53677 2.09956 1.50607
upperback 2.61423 2.8809 2.06214
thorax 0.668961 1.46513 1.18752
lowerneck -13.1623 -3.82648 -8.12338
upperneck 34.1272 -3.0664 2.30573
head 14.0352 -1.71537 1.95798
rclavicle 2.83268e-014 1.23246e-014
rhumerus -22.0964 -4.1512 -87.1778
rradius 33.7641
rwrist -8.30731
rhand -17.5539 13.4535
rfingers 7.12502
rthumb 8.70084 -16.3472
lclavicle 2.83268e-014 1.23246e-014
lhumerus -35.3553 15.691 78.3694
lradius 29.1679
lwrist 1.82886
lhand -15.3122 21.3681
lfingers 7.12502
lthumb 10.8637 51.0671
rfemur -3.8531 -11.4545 21.9819
rtibia 31.2915
rfoot -21.4534 -9.43818
rtoes -3.13327
lfemur -15.7909 4.18272 -17.985
ltibia 32.2063
lfoot -15.3225 -4.37899
ltoes 21.8046
2966
root -12.64 17.3184 -9.45109 169.574 104.66 -554.261
lowerback 3.41585 2.10474 1.54164
upperback 2.63696 2.88396 1.98593
thorax 0.765426 1.46759 1.09531
lowerneck -13.4487 -3.79257 -8.24981
upperneck 34.3902 -3.02891 2.54816
head 14.223 -1.68347 2.08734
rclavicle 1.2921e-014 -1.39149e-014
rhumerus -22.3629 -4.06257 -87.5894
rradius 34.5907
rwrist -8.13643
rhand -17.3275 13.7476
rfingers 7.12502
rthumb 8.91934 -16.0439
lclavicle 1.2921e-014 -1.39149e-014
lhumerus -35.2223 15.8094 78.1316
lradius 28.8646
lwrist 1.17251
lhand -14.9494 21.0633
lfingers 7.12502
lthumb 11.2136 50.7436
rfemur -3.83797 -11.4627 21.9069
rtibia 31.6489
rfoot -21.2963 -9.44181
rtoes -4.68381
lfemur -15.5991 4.30366 -17.9688
ltibia 32.1576
lfoot -15.5095 -4.64034
ltoes 21.5173
2967
root -12.6106 17.309 -9.46683 168.427 104.426 -555.329
lowerback 3.52164 2.07758 1.91471
upperback 2.57897 2.86183 1.94045
thorax 0.667768 1.4611 0.835623
lowerneck -13.4389 -3.77658 -8.20846
upperneck 34.4814 -3.04364 2.64749
head 14.2631 -1.66929 2.12099
rclavicle 4.10987e-014 -8.54774e-015
rhumerus -22.8142 -4.08628 -87.8857
rradius 35.4098
rwrist -8.10527
rhand -17.2805 14.1267
rfingers 7.12502
rthumb 8.96465 -15.6628
lclavicle 4.10987e-014 -8.54774e-015
lhumerus -35.1503 15.9775 77.8729
lradius 28.4918
lwrist 0.222257
lhand -15.0794 21.1598
lfingers 7.12502
lthumb 11.0881 50.8469
rfemur -3.75268 -11.9503 21.8797
rtibia 32.076
rfoot -21.375 -8.68513
rtoes -2.72252
lfemur -15.3866 4.31578 -17.8173
ltibia 32.0887
lfoot -15.5127 -4.99974
ltoes 22.2225
2968
root -12.5842 17.2996 -9.48538 167.601 104.161 -556.116
lowerback 3.67882 1.99086 2.11326
upperback 2.47612 2.75947 1.95958
thorax 0.483043 1.41067 0.73844
lowerneck -13.318 -3.68843 -8.06539
upperneck 34.4841 -2.96012 2.64886
head 14.2258 -1.61254 2.11185
rclavicle -6.4605e-016 1.55052e-014
rhumerus -23.227 -4.05211 -88.0321
rradius 36.1111
rwrist -7.73903
rhand -17.238 14.2593
rfingers 7.12502
rthumb 9.0057 -15.5285
lclavicle -6.4605e-016 1.55052e-014
lhumerus -35.1957 16.1929 77.7484
lradius 28.3179
lwrist -0.194745
lhand -15.7108 21.625
lfingers 7.12502
lthumb 10.4791 51.3438
rfemur -3.78601 -12.1157 21.8095
rtibia 32.4963
rfoot -21.3538 -8.07946
rtoes -0.250071
lfemur -15.2806 3.93922 -17.7926
ltibia 32.0852
lfoot -15.5882 -4.93719
ltoes 22.7137
2969
root -12.561 17.3 -9.50058 167.105 104.063 -556.613
lowerback 3.82521 1.91372 2.16853
upperback 2.37161 2.66629 2.01616
thorax 0.293665 1.36263 0.760101
lowerneck -13.3202 -3.61946 -8.04559
upperneck 34.5707 -2.87213 2.68944
head 14.2592 -1.56579 2.1414
rclavicle -7.45443e-016 1.31198e-014
rhumerus -23.6235 -3.50815 -88.2084
rradius 36.8412
rwrist -7.78558
rhand -17.4897 14.5213
rfingers 7.12502
rthumb 8.76277 -15.2768
lclavicle -7.45443e-016 1.31198e-014
lhumerus -35.2459 16.4378 77.6677
lradius 28.2195
lwrist -0.195577
lhand -15.6017 21.848
lfingers 7.12502
lthumb 10.5843 51.5614
rfemur -3.94403 -11.9337 21.8287
rtibia 32.8921
rfoot -21.0585 -8.18318
rtoes -1.39952
lfemur -15.233 3.61888 -17.7624
ltibia 32.1346
lfoot -15.9629 -4.56543
ltoes 19.699
2970
root -12.5348 17.301 -9.5122 166.085 104.017 -557.585
lowerback 3.94842 1.81938 2.35945
upperback 2.38292 2.55382 2.11195
thorax 0.2404 1.30855 0.751348
lowerneck -13.5693 -3.55986 -8.11828
upperneck 34.632 -2.73273 2.65377
head 14.3356 -1.522 2.16115
rclavicle -3.8117e-014 1.59028e-014
rhumerus -23.8304 -2.81515 -88.3562
rradius 37.5962
rwrist -8.29985
rhand -17.7354 14.6864
rfingers 7.12502
rthumb 8.5257 -15.1215
lclavicle -3.8117e-014 1.59028e-014
lhumerus -35.1814 16.4315 77.7462
lradius 28.2372
lwrist 0.0400953
lhand -15.1194 21.8852
lfingers 7.12502
lthumb 11.0496 51.5743
rfemur -4.02303 -12.0058 21.9585
rtibia 33.2918
rfoot -20.6567 -8.42904
rtoes -5.066
lfemur -15.0772 3.2566 -17.5692
ltibia 32.1589
lfoot -16.2965 -4.29642
ltoes 17.5231
2971
root -12.5008 17.299 -9.51914 164.978 103.926 -558.564
lowerback 3.9605 1.68925 2.4313
upperback 2.49842 2.38543 2.2931
thorax 0.346946 1.22751 0.905104
lowerneck -13.7978 -3.44479 -8.24305
upperneck 34.4991 -2.45443 2.46407
head 14.309 -1.44708 2.14503
rclavicle -2.47487e-014 -1.59028e-015
rhumerus -23.8344 -2.43454 -88.3354
rradius 38.1366
rwrist -8.54686
rhand -17.5933 14.5792
rfingers 7.12502
rthumb 8.66285 -15.2231
lclavicle -2.47487e-014 -1.59028e-015
lhumerus -35.0799 16.5365 77.924
lradius 28.3029
lwrist 0.307392
lhand -14.9506 21.7514
lfingers 7.12502
lthumb 11.2124 51.4318
rfemur -3.97058 -11.9356 22.0791
rtibia 33.7504
rfoot -20.2979 -8.67253
rtoes -7.12243
lfemur -14.7734 2.91511 -17.3872
ltibia 32.145
lfoot -16.5685 -4.12961
ltoes 16.5881
2972
root -12.465 17.3029 -9.53618 165.616 103.739 -557.898
lowerback 3.85473 1.67307 2.23308
upperback 2.49428 2.35208 2.25724
thorax 0.394974 1.20855 0.983492
lowerneck -13.7055 -3.43772 -8.07171
upperneck 34.2827 -2.4275 2.21354
head 14.1807 -1.44668 2.01282
rclavicle -3.88127e-014 -1.59028e-015
rhumerus -23.9658 -2.33406 -88.2334
rradius 38.485
rwrist -8.6569
rhand -17.0484 14.9598
rfingers 7.12502
rthumb 9.18867 -14.82
lclavicle -3.88127e-014 -1.59028e-015
lhumerus -35.0345 16.5418 77.983
lradius 28.3261
lwrist 0.560058
lhand -14.8471 21.6362
lfingers 7.12502
lthumb 11.3122 51.3111
rfemur -4.12702 -11.7571 21.7422
rtibia 34.3312
rfoot -20.1308 -8.64422
rtoes -6.41239
lfemur -14.6195 2.41657 -17.6904
ltibia 32.1047
lfoot -16.7223 -3.85914
ltoes 17.1299
2973
root -12.4341 17.306 -9.56237 166.371 103.593 -557.209
lowerback 3.78213 1.66783 2.07426
upperback 2.37093 2.33761 2.20841
thorax 0.304359 1.19749 1.02216
lowerneck -13.5932 -3.48102 -8.09561
upperneck 34.3105 -2.51106 2.27505
head 14.175 -1.47616 2.03025
rclavicle -1.54555e-014 1.98785e-015
rhumerus -24.1964 -2.05205 -88.1586
rradius 38.7731
rwrist -8.8166
rhand -16.7454 15.2689
rfingers 7.12502
rthumb 9.48105 -14.4978
lclavicle -1.54555e-014 1.98785e-015
lhumerus -35.1515 16.6163 77.9507
lradius 28.3635
lwrist 0.66493
lhand -14.7379 21.6762
lfingers 7.12502
lthumb 11.4175 51.3454
rfemur -4.53501 -11.6023 21.4062
rtibia 35.0802
rfoot -19.9884 -8.59669
rtoes -6.01202
lfemur -14.5955 1.93525 -18.0044
ltibia 32.0196
lfoot -16.6839 -3.83027
ltoes 20.3087
2974
root -12.4076 17.2962 -9.58033 165.637 103.612 -557.852
lowerback 3.91696 1.64219 2.11528
upperback 2.3324 2.31239 2.29416
thorax 0.187757 1.18461 1.0827
lowerneck -13.5772 -3.42893 -8.21704
upperneck 34.2775 -2.46963 2.46348
head 14.1581 -1.44889 2.13458
rclavicle 5.01931e-015 1.23246e-014
rhumerus -24.354 -1.92615 -88.1388
rradius 39.0244
rwrist -8.77361
rhand -16.6652 15.248
rfingers 7.12502
rthumb 9.55835 -14.5152
lclavicle 5.01931e-015 1.23246e-014
lhumerus -35.108 16.4427 78.0269
lradius 28.3055
lwrist 0.945536
lhand -14.8592 21.7346
lfingers 7.12502
lthumb 11.3005 51.4101
rfemur -4.864 -11.3911 21.436
rtibia 36.0086
rfoot -19.923 -8.41995
rtoes -4.82103
lfemur -14.3781 2.23857 -17.9588
ltibia 31.8929
lfoot -16.7955 -3.90282
ltoes 18.6279
2975
root -12.3774 17.2872 -9.59601 165.491 103.6 -557.764
lowerback 4.12163 1.61693 2.08915
upperback 2.40613 2.284 2.23708
thorax 0.150649 1.17098 1.03468
lowerneck -13.6288 -3.28895 -7.97527
upperneck 34.0444 -2.3419 2.43901
head 14.047 -1.36764 2.09734
rclavicle 3.77691e-014 2.38542e-015
rhumerus -24.5469 -1.85503 -88.2329
rradius 39.3624
rwrist -8.84283
rhand -16.8678 15.3001
rfingers 7.12502
rthumb 9.36291 -14.4719
lclavicle 3.77691e-014 2.38542e-015
lhumerus -34.9151 16.0142 78.1061
lradius 28.2845
lwrist 1.42468
lhand -15.3831 21.7355
lfingers 7.12502
lthumb 10.7952 51.438
rfemur -5.10672 -11.3613 21.2287
rtibia 37.093
rfoot -19.7753 -8.14465
rtoes -3.92692
lfemur -13.9842 2.7014 -18.1147
ltibia 31.7424
lfoot -16.9359 -3.95046
ltoes 15.8736
2976
root -12.3432 17.286 -9.61794 166.322 103.306 -556.802
lowerback 4.17054 1.46205 1.83817
upperback 2.43694 2.06889 2.17519
thorax 0.148851 1.06115 1.11877
lowerneck -13.766 -3.12481 -8.07528
upperneck 33.9842 -2.09794 2.5245
head 14.0363 -1.26549 2.18629
rclavicle -4.86525e-014 -4.41302e-014
rhumerus -24.7531 -1.15997 -88.2562
rradius 39.6341
rwrist -9.34872
rhand -17.6878 15.3142
rfingers 7.12502
rthumb 8.57163 -14.4918
lclavicle -4.86525e-014 -4.41302e-014
lhumerus -34.9824 16.8113 77.8801
lradius 28.3933
lwrist 0.972164
lhand -15.8939 21.7558
lfingers 7.12502
lthumb 10.3025 51.4835
rfemur -5.49888 -11.5837 20.7599
rtibia 38.3103
rfoot -19.2957 -8.37423
rtoes -6.74976
lfemur -13.685 2.74673 -18.5583
ltibia 31.5482
lfoot -16.7916 -4.22799
ltoes 17.0799
